<?xml version="1.0" encoding="UTF-8"?>
<!DOCTYPE svg PUBLIC "-//W3C//DTD SVG 1.1//EN" "http://www.w3.org/Graphics/SVG/1.1/DTD/svg11.dtd">
<!-- Creator: CorelDRAW 2021 (64-Bit) -->
<svg xmlns="http://www.w3.org/2000/svg" xml:space="preserve" width="250mm" height="70mm" version="1.1" style="shape-rendering:geometricPrecision; text-rendering:geometricPrecision; image-rendering:optimizeQuality; fill-rule:evenodd; clip-rule:evenodd"
viewBox="0 0 25000 7000"
 xmlns:xlink="http://www.w3.org/1999/xlink"
 xmlns:xodm="http://www.corel.com/coreldraw/odm/2003">
 <defs>
  <style type="text/css">
   <![CDATA[
    .fil0 {fill:white}
   ]]>
  </style>
 </defs>
 <g id="Capa_x0020_1">
  <metadata id="CorelCorpID_0Corel-Layer"/>
  <g id="_2809324322864">
   <path class="fil0" d="M8977.96 3638.29l32.06 -416.45c-1849.95,-103.24 -5343.7,-743.75 -6674.99,-1539.04 -29.05,-385.07 -17.13,-357.85 173.33,-598.07 563.18,-84.52 621.95,226.24 447.81,635.41l448.08 156.88c606.54,-790.24 -659.45,-1866.41 -1380.24,-999.84 -284.44,341.97 -220.96,973.5 101.84,1193.61 695.99,474.57 3006.5,1029 3852.52,1187.19 607.76,113.65 2447.12,441.4 2999.59,380.31z"/>
   <path class="fil0" d="M21720.91 1867.87l446.95 -153.85c-168.37,-408.06 -114.65,-712.45 453.87,-629.88 187.31,258.84 206.3,181 167.94,595.2 -1561.94,1006.69 -5680.67,1391.87 -5938.77,1506.69l14.11 402.27c1661.62,-124.77 3781.55,-572.98 5220.86,-1113.2 330.3,-123.98 865.6,-298.76 1040.52,-524.96 288.79,-373.41 185.34,-883.75 -95.31,-1146.6 -799.07,-748.33 -1878,369.02 -1310.17,1064.33z"/>
   <path class="fil0" d="M9822.69 4581.73l-19.29 411.68c899.3,248.16 5104.53,48.47 6235.4,-12.12l-11.7 -420.62 -3071 106.27c-1047.28,4.29 -2117.85,-94.65 -3133.41,-85.21z"/>
   <path class="fil0" d="M9842.83 4365.31c2775.33,94.76 3392.57,94.91 6160.68,-35.06l-29.78 -409.87 -3017.63 92.81c-1032.81,4.62 -2065.16,-82.92 -3072.31,-80.18l-40.96 432.3z"/>
   <path class="fil0" d="M9920.63 3310.91l-27.9 426c2147.39,93.16 3930.28,54.35 6060.08,-51.3l-33.15 -425.8 -2914.6 122.29c-1017.37,15.1 -2110.92,-101.42 -3084.43,-71.19z"/>
   <path class="fil0" d="M4679.1 3617.63c992.41,215.15 3269.2,714.8 4251.62,651.27l22.1 -398.17c-312.3,-104.63 -1648.4,-202.82 -2094.85,-272.05 -664.75,-103.07 -1359.53,-289.59 -1981.17,-369.49l-197.7 388.44z"/>
   <path class="fil0" d="M10458.85 5662.48c1524.7,77.55 2945.5,45.09 4457.6,4.62l-30.46 -437.44c-1465.35,67.47 -2924.17,69.3 -4389.52,-0.21l-37.62 433.03z"/>
   <path class="fil0" d="M16971.27 4238.77c1342.45,-117.01 2480.35,-398.45 3730.22,-605.28l-163.21 -401.87c-540.86,42.81 -1372.55,269.75 -1982.56,365.94l-1569.16 201.93c-132.57,50.43 -90.91,-24.77 -96.19,155.86l61.34 243.32c4.27,10.52 11.87,27.37 19.56,40.1z"/>
   <path class="fil0" d="M8976.44 5236.86l669.71 40.57c40.1,-403.71 208.79,-1990.01 145.35,-2254.19l-642.76 -43.88 -172.3 2257.5z"/>
   <polygon class="fil0" points="16047.14,3023.29 16200.82,5273.15 16867.5,5235.53 16703.74,3005.06 "/>
   <polygon class="fil0" points="11979.6,3258.27 13383.31,3263.08 13422.89,2690.32 11972.37,2692.91 "/>
   <polygon class="fil0" points="11971.27,6400.59 13414.62,6398.09 13416.81,5857.3 11984.1,5839.41 "/>
   <polygon class="fil0" points="7506.11,4791.05 8871.1,4939.1 8911.25,4494.45 7624.81,4367.74 "/>
   <path class="fil0" d="M16942.48 4505.33l29.27 384.99 898.45 -93.41c-60.38,-370.32 3.69,-544.58 -754.73,-356.37 -315.16,78.21 241.56,-85.25 -86.96,27.29 -14.51,4.97 -31.25,13.63 -42.99,18.06 -11.89,4.48 -29.52,11.39 -43.04,19.44z"/>
  </g>
 </g>
</svg>
