<?xml version="1.0" encoding="UTF-8"?>
<!DOCTYPE svg PUBLIC "-//W3C//DTD SVG 1.1//EN" "http://www.w3.org/Graphics/SVG/1.1/DTD/svg11.dtd">
<!-- Creator: CorelDRAW 2021 (64-Bit) -->
<svg xmlns="http://www.w3.org/2000/svg" xml:space="preserve" width="210mm" height="125mm" version="1.1" style="shape-rendering:geometricPrecision; text-rendering:geometricPrecision; image-rendering:optimizeQuality; fill-rule:evenodd; clip-rule:evenodd"
viewBox="0 0 21000 12500"
 xmlns:xlink="http://www.w3.org/1999/xlink"
 xmlns:xodm="http://www.corel.com/coreldraw/odm/2003">
 <defs>
  <style type="text/css">
   <![CDATA[
    .fil1 {fill:none}
    .fil0 {fill:white}
   ]]>
  </style>
 </defs>
 <g id="Capa_x0020_1">
  <metadata id="CorelCorpID_0Corel-Layer"/>
  <polygon class="fil0" points="8182.46,7295.49 18738.99,7292.49 18741.62,4516.25 8101.57,4508.52 "/>
  <path class="fil0" d="M3506.07 5184.83c8.27,-583.83 272.81,-1195.93 439.36,-1786.48 183.15,-264.54 -275.63,-173.06 333.7,-253.76l1943.07 28.69c50.7,653.21 141.73,1647.84 -63.98,2277.08l-2792.2 -55.38 140.05 -210.15zm4221.24 3865.54c561.32,132.18 155.96,75.2 304.92,-89.48l-14.28 -1374.21 -568.59 -22.15 -42.42 -4986.99 -3368.43 -0.41c-397.58,104.81 -955.85,2706.59 -976.04,2899.74 -71.66,685.86 -108.31,3092.35 71.02,3683.03l1112.4 8.37c226.03,-1049.15 521.76,-1819.03 1717.86,-1846.86 1069.52,-24.87 1780.16,723.59 1763.56,1728.96z"/>
  <path class="fil0" d="M11736.81 7761.14c-303.87,-233.89 -584.91,-170.19 -1078.3,-163.55 -2322.28,31.24 -2304.18,-322.69 -2294.27,1005.27 8.37,1122 198.7,894.06 1328.29,883.83 311.96,-2.82 1839.26,98.71 2052.01,-168.33 150.78,-329.65 156.82,-1252.26 -7.73,-1557.22z"/>
  <path class="fil0" d="M5730.5 8334.41c982.04,-470.51 1470.01,1059.89 629.97,1389.31 -936.61,367.34 -1629.38,-910.47 -629.97,-1389.31zm-1088.57 987.41c300.5,1617.01 3105.07,1347.74 2769.78,-582.73 -310.32,-1786.93 -3127.31,-1341.02 -2769.78,582.73z"/>
  <path class="fil0" d="M14839.98 8313.68c1076.88,-444 1445.77,1137.91 558.36,1422.91 -926.66,297.64 -1511.07,-1030.1 -558.36,-1422.91zm1664.16 1052.61c45.97,-1244.17 -247.76,-947.94 -645.2,-1678.44 -766.75,-37.88 -1259.04,-233.67 -1784.12,358.06 -342.29,385.76 -464.64,1190.74 -137.54,1728.28 646.3,1062.2 2076.43,812.53 2566.86,-407.9z"/>
  <path class="fil0" d="M12213.6 9200.92l1151.14 -60.39c193.6,-853.22 168.05,-871 592.77,-1384.8 -300.36,-212.43 -1332.51,-97.8 -1771.15,-112.26l27.24 1557.45z"/>
  <path class="fil0" d="M16831.93 8600.5c18.27,37.33 32.6,87.75 47.01,115.49l97.44 192.92c214.21,334.11 -165.6,-3 176.97,146.64 436.73,28.87 340.56,-161.05 270.31,-1455.96l-1158.19 26.83c286.78,524.94 165.37,102.62 566.46,974.08z"/>
  <path class="fil1" d="M16830.33 8827.25l82.35 374.21 611.69 -11 61.02 -1600.19 -161.73 9.32c70.25,1294.91 166.42,1484.83 -270.31,1455.96 -342.57,-149.64 37.24,187.47 -176.97,-146.64l-97.44 -192.92c-14.41,-27.74 -28.74,-78.16 -47.01,-115.49"/>
  <path class="fil0" d="M7727.31 9050.37c216.03,229.89 -357.25,210.97 281.73,190.29 36.19,-354.93 -67.61,-419.96 16.78,-895.79 -5.05,-485.2 -5.14,-493.79 -7.87,-758.19l14.28 1374.21c-148.96,164.68 256.4,221.66 -304.92,89.48z"/>
  <path class="fil0" d="M6083.93 6667.48c210.29,-389.26 121.49,-383.17 0,-639.07 -200.07,127.5 -190.93,-191.15 -232.12,293.55 -37.88,446 112.03,284.22 232.12,345.52z"/>
 </g>
</svg>
